# xmcd
# 
# Track frame offsets:
#     150
#     20495
#     36820
#     56782
#     77852
#     99375
#     132977
#     148637
#     176490
# 
# Disc length: 2580
# 
# Revision: 6
# Processed by: cddbd v1.5.2PL0 Copyright (c) Steve Scherf et al.
# Submitted via: fre:ac v1.0.27
# 
DISCID=770a1209
DTITLE=John Lee Hooker - More Real Folk Blues - The Missing Album (Digitally Remastered) - 1991
DYEAR=1991
DGENRE=Blues
TTITLE0=This Land Is Nobody's Land
TTITLE1=Deep Blue Sea
TTITLE2=Nobody Knows
TTITLE3=Mustang Sally and GTO
TTITLE4=Lead Me
TTITLE5=Catfish
TTITLE6=I Can't Quit You Baby
TTITLE7=Want Ad Blues
TTITLE8=House Rent Blues
EXTD=
EXTT0=
EXTT1=
EXTT2=
EXTT3=
EXTT4=
EXTT5=
EXTT6=
EXTT7=
EXTT8=
PLAYORDER=
